<svg id="Layer_1" data-name="Layer 1" xmlns="http://www.w3.org/2000/svg" viewBox="0 0 406.55 76.05"><defs><style>.cls-1{fill:#2196f3;}</style></defs><title>mobitrixlogo</title><path class="cls-1" d="M48.62,243.73c0-5.28-.1-9.6-.42-13.82h8.12l.43,8.22h.31c2.85-4.85,7.6-9.38,16-9.38A15.1,15.1,0,0,1,87.55,239h.21a21.09,21.09,0,0,1,5.7-6.65,17.39,17.39,0,0,1,11.28-3.58c6.75,0,16.77,4.43,16.77,22.15V281h-9.07v-28.9c0-9.81-3.58-15.72-11.07-15.72-5.28,0-9.39,3.9-11,8.44a15,15,0,0,0-.74,4.64V281H80.59V250.37c0-8.12-3.59-14-10.66-14-5.8,0-10,4.64-11.5,9.28a13,13,0,0,0-.73,4.54V281H48.62Z" transform="translate(-48.2 -206.07)"/><path class="cls-1" d="M182.8,255c0,18.88-13.08,27.11-25.42,27.11-13.82,0-24.47-10.12-24.47-26.26,0-17.09,11.18-27.11,25.32-27.11C172.89,228.75,182.8,239.4,182.8,255Zm-40.5.53c0,11.18,6.43,19.62,15.5,19.62,8.86,0,15.51-8.33,15.51-19.83,0-8.65-4.32-19.62-15.29-19.62S142.3,245.84,142.3,255.54Z" transform="translate(-48.2 -206.07)"/><path class="cls-1" d="M194.09,281c.21-3.48.42-8.65.42-13.18V206.07h9.18v32.06h.21c3.27-5.69,9.18-9.38,17.41-9.38,12.66,0,21.62,10.55,21.52,26.05,0,18.25-11.5,27.32-22.89,27.32-7.39,0-13.29-2.85-17.09-9.6h-.32l-.42,8.44Zm9.6-20.46a17.35,17.35,0,0,0,.42,3.37A14.34,14.34,0,0,0,218,274.74c9.7,0,15.5-7.91,15.5-19.62,0-10.23-5.27-19-15.19-19-6.33,0-12.23,4.33-14.13,11.39a18.39,18.39,0,0,0-.53,3.8Z" transform="translate(-48.2 -206.07)"/><path class="cls-1" d="M264.87,215.56c.11,3.17-2.21,5.7-5.9,5.7a5.52,5.52,0,0,1-5.59-5.7,5.65,5.65,0,0,1,5.8-5.8A5.5,5.5,0,0,1,264.87,215.56ZM254.54,281v-51h9.28v51Z" transform="translate(-48.2 -206.07)"/><path class="cls-1" d="M290.4,215.25v14.66h13.29V237H290.4v27.54c0,6.32,1.8,9.91,7,9.91a20.5,20.5,0,0,0,5.38-.63l.43,7a22.74,22.74,0,0,1-8.23,1.27c-4.33,0-7.81-1.38-10-3.91-2.64-2.74-3.59-7.28-3.59-13.29V237h-7.91v-7.06h7.91V217.67Z" transform="translate(-48.2 -206.07)"/><path class="cls-1" d="M314.14,245.84c0-6-.11-11.19-.43-15.93h8.13l.31,10h.43c2.32-6.86,7.91-11.18,14.13-11.18a10.12,10.12,0,0,1,2.64.31v8.76a14,14,0,0,0-3.17-.32c-6.54,0-11.18,5-12.44,11.92a26.21,26.21,0,0,0-.43,4.33V281h-9.17Z" transform="translate(-48.2 -206.07)"/><path class="cls-1" d="M359.39,215.56c.11,3.17-2.22,5.7-5.91,5.7a5.52,5.52,0,0,1-5.59-5.7,5.66,5.66,0,0,1,5.8-5.8A5.51,5.51,0,0,1,359.39,215.56ZM349.05,281v-51h9.29v51Z" transform="translate(-48.2 -206.07)"/><path class="cls-1" d="M378.06,229.91l7.28,11c1.9,2.85,3.48,5.48,5.17,8.33h.32c1.68-3.06,3.37-5.7,5.06-8.44l7.17-10.86h10l-17.4,24.68L413.61,281H403.06l-7.49-11.5c-2-2.95-3.69-5.8-5.48-8.86h-.21c-1.69,3.06-3.49,5.8-5.38,8.86L377.11,281H366.88l18.14-26-17.3-25Z" transform="translate(-48.2 -206.07)"/><path class="cls-1" d="M454.75,226A17.78,17.78,0,1,1,437,208.71,17.38,17.38,0,0,1,454.75,226Zm-31.12,0c0,7.7,5.7,13.82,13.5,13.82,7.6,0,13.19-6.12,13.19-13.71s-5.59-13.92-13.29-13.92S423.63,218.41,423.63,226Zm10.66,9.08h-4v-17.3a34.68,34.68,0,0,1,6.64-.53c3.27,0,4.75.53,6,1.27a4.79,4.79,0,0,1,1.68,3.79c0,1.9-1.47,3.38-3.58,4v.21c1.68.63,2.63,1.9,3.16,4.22.53,2.64.84,3.69,1.27,4.33h-4.33c-.52-.64-.84-2.22-1.37-4.22-.31-1.9-1.37-2.75-3.59-2.75h-1.89Zm.1-9.81h1.9c2.22,0,4-.74,4-2.54,0-1.58-1.16-2.63-3.69-2.63a9.36,9.36,0,0,0-2.22.21Z" transform="translate(-48.2 -206.07)"/></svg>